<svg width="563" height="563" viewBox="0 0 563 563" fill="none" xmlns="http://www.w3.org/2000/svg">
<circle cx="281.5" cy="281.5" r="281.5" fill="#FC4255"/>
<path d="M344.531 308.26C306.596 308.26 275.738 339.118 275.738 377.053C275.738 380.851 278.818 383.931 282.617 383.931C286.415 383.931 289.495 380.851 289.495 377.053C289.495 346.707 314.185 322.019 344.529 322.019C348.328 322.019 351.408 318.939 351.408 315.14C351.408 311.342 348.329 308.26 344.531 308.26Z" fill="white"/>
<path d="M255.101 191.311C255.101 153.377 224.242 122.519 186.308 122.519C182.509 122.519 179.429 125.599 179.429 129.397C179.429 133.196 182.509 136.276 186.308 136.276C216.654 136.277 241.344 160.967 241.344 191.311C241.344 195.11 244.424 198.19 248.222 198.19C252.021 198.19 255.101 195.11 255.101 191.311Z" fill="white"/>
<path d="M488.471 243.717C487.772 242.035 486.433 240.695 484.752 239.997C483.911 239.65 483.019 239.466 482.123 239.466H413.33C409.532 239.466 406.452 242.546 406.452 246.344C406.452 250.143 409.532 253.223 413.33 253.223H465.516L411.905 306.833C411.628 307.111 411.5 307.465 411.281 307.775C393.953 291.076 370.448 280.741 344.538 280.741C291.431 280.741 248.227 323.945 248.227 377.051C248.227 430.158 291.431 473.362 344.538 473.362C397.644 473.362 440.848 430.158 440.848 377.051C440.848 354.595 433.06 333.959 420.129 317.562C420.65 317.264 421.19 317.006 421.634 316.562L475.243 262.953V315.139C475.243 318.937 478.323 322.017 482.121 322.017C485.92 322.017 489 318.937 489 315.139V246.346C489 245.449 488.818 244.557 488.471 243.717ZM427.088 377.051C427.088 422.569 390.054 459.603 344.536 459.603C299.018 459.603 261.984 422.569 261.984 377.051C261.984 331.533 299.018 294.5 344.536 294.5C390.054 294.5 427.088 331.533 427.088 377.051Z" fill="white"/>
<path d="M217.647 335.776H193.189V287.272C243.084 283.72 282.619 242.095 282.619 191.31C282.619 138.204 239.415 95 186.309 95C133.202 95 90 138.206 90 191.31C90 242.095 129.537 283.72 179.43 287.272V335.776H155.353C151.555 335.776 148.475 338.856 148.475 342.655C148.475 346.453 151.555 349.533 155.353 349.533H179.43V370.171C179.43 373.969 182.51 377.049 186.309 377.049C190.107 377.049 193.187 373.969 193.187 370.171V349.533H217.644C221.442 349.533 224.522 346.453 224.522 342.655C224.522 338.856 221.446 335.776 217.647 335.776ZM186.31 273.862C140.793 273.862 103.759 236.828 103.759 191.31C103.759 145.793 140.793 108.759 186.31 108.759C231.828 108.759 268.862 145.793 268.862 191.31C268.862 236.828 231.828 273.862 186.31 273.862Z" fill="white"/>
</svg>
