<svg width="18" height="17" viewBox="0 0 18 17" fill="none" xmlns="http://www.w3.org/2000/svg">
<path d="M16.3125 0.375H1.6875C0.738281 0.375 0 1.14844 0 2.0625V14.4375C0 15.3867 0.738281 16.125 1.6875 16.125H16.3125C17.2266 16.125 18 15.3867 18 14.4375V2.0625C18 1.14844 17.2266 0.375 16.3125 0.375ZM1.125 2.0625C1.125 1.78125 1.37109 1.5 1.6875 1.5H3.375V3.75H1.125V2.0625ZM16.875 14.4375C16.875 14.7539 16.5938 15 16.3125 15H1.6875C1.37109 15 1.125 14.7539 1.125 14.4375V4.875H16.875V14.4375ZM16.875 3.75H4.5V1.5H16.3125C16.5938 1.5 16.875 1.78125 16.875 2.0625V3.75Z" fill="black"/>
</svg>
