<svg width="24" height="19" viewBox="0 0 24 19" fill="none" xmlns="http://www.w3.org/2000/svg">
<path d="M21.6783 0H5.61298C4.64906 0 3.87793 0.792554 3.87793 1.73505V11.7169C3.87793 12.6809 4.67048 13.452 5.61298 13.452H16.6873L19.1935 15.9796C19.3006 16.0867 19.4291 16.151 19.5791 16.151C19.879 16.151 20.136 15.9153 20.136 15.594V13.452H21.6783C22.6422 13.452 23.4133 12.6594 23.4133 11.7169V1.73505C23.4133 0.771134 22.6208 0 21.6783 0ZM8.07632 8.58957C7.19809 8.58957 6.4698 7.86128 6.4698 6.98304C6.4698 6.10481 7.19809 5.37652 8.07632 5.37652C8.95456 5.37652 9.68285 6.10481 9.68285 6.98304C9.68285 7.86128 8.97598 8.58957 8.07632 8.58957ZM13.7099 8.58957C12.8316 8.58957 12.1034 7.86128 12.1034 6.98304C12.1034 6.10481 12.8316 5.37652 13.7099 5.37652C14.5881 5.37652 15.3164 6.10481 15.3164 6.98304C15.3164 7.86128 14.5881 8.58957 13.7099 8.58957ZM19.322 8.58957C18.4438 8.58957 17.7155 7.86128 17.7155 6.98304C17.7155 6.10481 18.4438 5.37652 19.322 5.37652C20.2003 5.37652 20.9286 6.10481 20.9286 6.98304C20.9286 7.86128 20.2003 8.58957 19.322 8.58957Z" fill="white"/>
<path d="M2.8924 11.7603V8.35449H1.13593C0.514735 8.35449 0.000645905 8.86858 0.000645905 9.48977V16.0444C-0.0207745 16.7084 0.493315 17.2225 1.13593 17.2225H2.14268V18.6363C2.14268 18.8291 2.31405 19.0004 2.50683 19.0004C2.61393 19.0004 2.69961 18.9576 2.76388 18.8933L4.41325 17.244H11.6962C12.3174 17.244 12.8315 16.7299 12.8315 16.1087V14.4807H5.61279C4.11336 14.4807 2.8924 13.2598 2.8924 11.7603Z" fill="white"/>
</svg>
