<svg width="17" height="13" viewBox="0 0 17 13" fill="none" xmlns="http://www.w3.org/2000/svg">
<path d="M15.4062 0.25H1.59375C0.697266 0.25 0 0.980469 0 1.84375V11.4062C0 12.3027 0.697266 13 1.59375 13H15.4062C16.2695 13 17 12.3027 17 11.4062V1.84375C17 0.980469 16.2695 0.25 15.4062 0.25ZM1.59375 1.3125H15.4062C15.6719 1.3125 15.9375 1.57812 15.9375 1.84375V3.23828C15.207 3.83594 14.1445 4.69922 10.9238 7.25586C10.3594 7.7207 9.26367 8.7832 8.5 8.75C7.70312 8.7832 6.60742 7.7207 6.04297 7.25586C2.82227 4.69922 1.75977 3.83594 1.0625 3.23828V1.84375C1.0625 1.57812 1.29492 1.3125 1.59375 1.3125ZM15.4062 11.9375H1.59375C1.29492 11.9375 1.0625 11.7051 1.0625 11.4062V4.59961C1.79297 5.23047 2.98828 6.19336 5.37891 8.08594C6.07617 8.65039 7.27148 9.8457 8.5 9.8125C9.69531 9.8457 10.8906 8.65039 11.5879 8.08594C13.9785 6.19336 15.1738 5.23047 15.9375 4.59961V11.4062C15.9375 11.7051 15.6719 11.9375 15.4062 11.9375Z" fill="black"/>
</svg>
