<svg width="31" height="31" viewBox="0 0 31 31" fill="none" xmlns="http://www.w3.org/2000/svg">
<circle cx="15.5" cy="15.5" r="15.5" fill="white"/>
<circle cx="15.8298" cy="15.1704" r="13.8511" fill="#FC4255"/>
<g clip-path="url(#clip0)">
<path d="M12.8268 22.4255C11.7718 20.2302 12.3336 18.9723 13.1445 17.7872C14.0324 16.4893 14.2613 15.2046 14.2613 15.2046C14.2613 15.2046 14.9593 16.112 14.6801 17.5313C15.9132 16.1585 16.146 13.9714 15.9598 13.1338C18.7472 15.0817 19.9385 19.2996 18.333 22.4255C26.8721 17.5942 20.4571 10.365 19.3402 9.55067C19.7125 10.365 19.7831 11.7435 19.0311 12.4125C17.758 7.58506 14.6103 6.5957 14.6103 6.5957C14.9826 9.08525 13.2608 11.8075 11.6005 13.8417C11.5422 12.849 11.4802 12.164 10.9582 11.214C10.841 13.0174 9.46285 14.4874 9.08964 16.2942C8.58412 18.7411 9.46831 20.5327 12.8268 22.4255Z" fill="white"/>
</g>
<defs>
<clipPath id="clip0">
<rect width="15.8298" height="15.8298" fill="white" transform="translate(7.91492 6.5957)"/>
</clipPath>
</defs>
</svg>
