<svg width="27" height="20" viewBox="0 0 27 20" fill="none" xmlns="http://www.w3.org/2000/svg">
<path d="M10.2413 0.316743C10.1645 0.105581 10.0206 0 9.80941 0H6.09492C5.88375 0 5.73978 0.105581 5.66299 0.316743L0.0191966 18.8606C-0.0191966 19.0334 0 19.1581 0.0767864 19.2348C0.153573 19.35 0.278351 19.4078 0.45112 19.4078H3.79133C4.02169 19.4078 4.16566 19.3022 4.22325 19.091L5.17348 15.7508H10.7309L11.6812 19.091C11.7388 19.3022 11.8731 19.4078 12.0843 19.4078H15.4533H15.482C15.5971 19.4078 15.6981 19.3693 15.7844 19.2926C15.8708 19.2158 15.914 19.1102 15.914 18.9758C15.914 18.9375 15.8948 18.8607 15.8563 18.7455L10.2413 0.316743ZM6.03733 12.1514L7.93779 5.35585L9.86705 12.1514H6.03733ZM25.6466 6.79559C24.7444 5.97014 23.4774 5.55741 21.8458 5.55741C20.8284 5.55741 19.8878 5.72538 19.0239 6.06128C18.16 6.39722 17.4018 6.89153 16.7491 7.54421C16.5954 7.69778 16.5667 7.87055 16.6627 8.06252L17.7281 9.90534C17.7857 10.0205 17.8912 10.0973 18.0448 10.1357C18.1791 10.1741 18.304 10.1357 18.4192 10.0205C19.3022 9.11829 20.2812 8.66716 21.3563 8.66716C22.7384 8.66716 23.4294 9.32949 23.4294 10.654V11.4891C22.6232 10.8556 21.625 10.539 20.4348 10.539C19.8973 10.539 19.3646 10.6301 18.8367 10.8124C18.3087 10.9948 17.8383 11.2731 17.4258 11.6475C17.013 12.0218 16.6771 12.5018 16.4179 13.0874C16.1588 13.6728 16.0292 14.359 16.0292 15.1462C16.0292 15.9139 16.1538 16.5859 16.4034 17.1618C16.6531 17.7377 16.9889 18.2225 17.4114 18.616C17.8336 19.0094 18.3039 19.3071 18.8222 19.5086C19.3406 19.7102 19.878 19.811 20.4347 19.811C20.9914 19.811 21.5288 19.7246 22.0471 19.5518C22.5656 19.379 23.0263 19.1295 23.4293 18.8032V19.0623C23.4293 19.1775 23.4725 19.2784 23.5589 19.3648C23.6454 19.4512 23.7461 19.4944 23.8614 19.4944H26.5679C26.6831 19.4944 26.784 19.4512 26.8704 19.3648C26.9568 19.2784 27 19.1776 27 19.0623V10.3086C27 8.79204 26.5489 7.62105 25.6466 6.79559ZM23.4294 16.1251C23.0071 16.7778 22.3352 17.1043 21.4138 17.1043C20.8571 17.1043 20.4156 16.9267 20.0894 16.5715C19.7629 16.2164 19.5999 15.7508 19.5999 15.1749C19.5999 14.5991 19.763 14.1288 20.0894 13.764C20.4157 13.3993 20.8571 13.2169 21.4138 13.2169C21.6825 13.2169 22.0186 13.2793 22.4216 13.4041C22.8247 13.5289 23.1607 13.812 23.4294 14.2536V16.1251Z" fill="white"/>
</svg>
