<svg width="40" height="40" viewBox="0 0 40 40" fill="none" xmlns="http://www.w3.org/2000/svg">
<g filter="url(#filter0_d)">
<circle cx="20" cy="16" r="16" fill="white"/>
<circle cx="19.8298" cy="16.1704" r="13.8511" fill="#FC4255"/>
<path d="M15.7642 11.098C16.0232 10.881 16.3032 10.678 16.6042 10.489C16.9122 10.3 17.2412 10.1355 17.5912 9.9955C17.9412 9.8485 18.3157 9.7365 18.7147 9.6595C19.1207 9.5755 19.5582 9.5335 20.0272 9.5335C20.6852 9.5335 21.2767 9.621 21.8017 9.796C22.3337 9.971 22.7852 10.223 23.1562 10.552C23.5272 10.874 23.8107 11.266 24.0067 11.728C24.2097 12.183 24.3112 12.6905 24.3112 13.2505C24.3112 13.7895 24.2377 14.2515 24.0907 14.6365C23.9437 15.0215 23.7547 15.3575 23.5237 15.6445C23.2997 15.9315 23.0512 16.18 22.7782 16.39C22.5122 16.593 22.2567 16.7855 22.0117 16.9675C21.7737 17.1495 21.5637 17.328 21.3817 17.503C21.2067 17.678 21.0982 17.874 21.0562 18.091L20.7622 19.561H18.5362L18.3052 17.8705C18.2982 17.8285 18.2912 17.7865 18.2842 17.7445C18.2842 17.7025 18.2842 17.6605 18.2842 17.6185C18.2842 17.3105 18.3577 17.041 18.5047 16.81C18.6517 16.579 18.8372 16.369 19.0612 16.18C19.2852 15.984 19.5267 15.7985 19.7857 15.6235C20.0447 15.4415 20.2862 15.249 20.5102 15.046C20.7342 14.836 20.9197 14.605 21.0667 14.353C21.2137 14.094 21.2872 13.7895 21.2872 13.4395C21.2872 13.0195 21.1472 12.687 20.8672 12.442C20.5942 12.19 20.2162 12.064 19.7332 12.064C19.3622 12.064 19.0507 12.1025 18.7987 12.1795C18.5537 12.2565 18.3402 12.344 18.1582 12.442C17.9832 12.533 17.8292 12.617 17.6962 12.694C17.5632 12.771 17.4302 12.8095 17.2972 12.8095C16.9962 12.8095 16.7722 12.68 16.6252 12.421L15.7642 11.098ZM17.6962 23.3515C17.6962 23.0995 17.7417 22.865 17.8327 22.648C17.9307 22.431 18.0602 22.242 18.2212 22.081C18.3892 21.92 18.5852 21.794 18.8092 21.703C19.0332 21.605 19.2782 21.556 19.5442 21.556C19.8032 21.556 20.0447 21.605 20.2687 21.703C20.4927 21.794 20.6887 21.92 20.8567 22.081C21.0247 22.242 21.1542 22.431 21.2452 22.648C21.3432 22.865 21.3922 23.0995 21.3922 23.3515C21.3922 23.6035 21.3432 23.8415 21.2452 24.0655C21.1542 24.2825 21.0247 24.4715 20.8567 24.6325C20.6887 24.7935 20.4927 24.9195 20.2687 25.0105C20.0447 25.1015 19.8032 25.147 19.5442 25.147C19.2782 25.147 19.0332 25.1015 18.8092 25.0105C18.5852 24.9195 18.3892 24.7935 18.2212 24.6325C18.0602 24.4715 17.9307 24.2825 17.8327 24.0655C17.7417 23.8415 17.6962 23.6035 17.6962 23.3515Z" fill="white"/>
</g>
<defs>
<filter id="filter0_d" x="0" y="0" width="40" height="40" filterUnits="userSpaceOnUse" color-interpolation-filters="sRGB">
<feFlood flood-opacity="0" result="BackgroundImageFix"/>
<feColorMatrix in="SourceAlpha" type="matrix" values="0 0 0 0 0 0 0 0 0 0 0 0 0 0 0 0 0 0 127 0"/>
<feOffset dy="4"/>
<feGaussianBlur stdDeviation="2"/>
<feColorMatrix type="matrix" values="0 0 0 0 0.988235 0 0 0 0 0.258824 0 0 0 0 0.333333 0 0 0 0.1 0"/>
<feBlend mode="normal" in2="BackgroundImageFix" result="effect1_dropShadow"/>
<feBlend mode="normal" in="SourceGraphic" in2="effect1_dropShadow" result="shape"/>
</filter>
</defs>
</svg>
