<svg width="87" height="51" viewBox="0 0 87 51" fill="none" xmlns="http://www.w3.org/2000/svg">
<path d="M46.554 44.52C54.874 39.97 67.744 29.7 67.744 20.08C67.744 13.32 63.714 8.25 56.694 8.25C51.494 8.25 47.074 12.67 47.074 17.87C47.074 24.37 52.144 25.41 52.144 30.87C52.014 34.77 49.804 39.71 46.164 44.26L46.554 44.52ZM19.644 44.52C27.964 39.97 40.834 29.7 40.834 20.08C40.834 13.32 36.804 8.25 29.784 8.25C24.584 8.25 20.164 12.67 20.164 17.87C20.164 24.37 25.234 25.41 25.234 30.87C25.104 34.77 22.894 39.71 19.254 44.26L19.644 44.52Z" fill="white"/>
</svg>
