<svg width="13" height="13" viewBox="0 0 13 13" fill="none" xmlns="http://www.w3.org/2000/svg">
<path d="M2.00586 2.9307C2.11306 3.02252 2.16667 3.13126 2.16667 3.25692C2.16667 3.38257 2.11306 3.49131 2.00586 3.58314C1.89865 3.67496 1.7717 3.72087 1.625 3.72087C1.4783 3.72087 1.35135 3.67496 1.24414 3.58314C1.13693 3.49131 1.08333 3.38257 1.08333 3.25692C1.08333 3.13126 1.13693 3.02252 1.24414 2.9307C1.35134 2.83887 1.4783 2.79296 1.625 2.79296C1.7717 2.79296 1.89865 2.83887 2.00586 2.9307ZM11.9167 7.43252C11.9167 7.679 11.8066 7.89527 11.5866 8.08134C11.3665 8.2674 11.1155 8.36044 10.8333 8.36044L7.85417 8.36044C7.85417 8.64074 7.98958 9.02616 8.26042 9.5167C8.53125 10.0072 8.66667 10.3951 8.66667 10.6802C8.66667 11.1538 8.57639 11.5042 8.39583 11.7314C8.21528 11.9585 7.85417 12.0721 7.3125 12.0721C7.1658 11.9464 7.05859 11.741 6.99089 11.4559C6.92318 11.1708 6.83713 10.8675 6.73275 10.5461C6.62836 10.2247 6.4605 9.96012 6.22917 9.7523C6.10503 9.64115 5.88781 9.42125 5.57747 9.09262C5.5549 9.06845 5.49002 8.99596 5.38281 8.87514C5.27561 8.75431 5.18674 8.65524 5.11621 8.57792C5.04568 8.50059 4.94835 8.39789 4.82422 8.26982C4.70009 8.14175 4.58724 8.03543 4.48568 7.95085C4.38411 7.86627 4.2755 7.78049 4.15983 7.6935C4.04416 7.60651 3.93132 7.54126 3.82129 7.49777C3.71126 7.45427 3.61111 7.43252 3.52083 7.43252L3.25 7.43252L3.25 2.79296L3.52083 2.79296C3.59418 2.79296 3.68305 2.78571 3.78743 2.77121C3.89182 2.75671 3.98492 2.74101 4.06673 2.72409C4.14855 2.70718 4.25575 2.6806 4.38835 2.64435C4.52094 2.6081 4.61968 2.58031 4.68457 2.56098C4.74946 2.54165 4.84961 2.51144 4.98502 2.47036C5.12044 2.42928 5.20226 2.40391 5.23047 2.39425C6.42101 2.04144 7.38585 1.86505 8.125 1.86505L9.14909 1.86505C10.2324 1.86505 10.7741 2.26859 10.7741 3.07568C10.7741 3.20134 10.76 3.33666 10.7318 3.48164C10.901 3.55897 11.035 3.68583 11.1338 3.86223C11.2325 4.03863 11.2819 4.21624 11.2819 4.39506C11.2819 4.57388 11.2311 4.74061 11.1296 4.89526C11.4286 5.13691 11.5781 5.42446 11.5781 5.75793C11.5781 5.87875 11.5499 6.01286 11.4935 6.16027C11.4371 6.30767 11.3665 6.42245 11.2819 6.50461C11.4625 6.50944 11.6134 6.62301 11.7347 6.84533C11.856 7.06764 11.9167 7.26337 11.9167 7.43252ZM13 7.43977C13 7.00964 12.8618 6.61577 12.5853 6.25813C12.6361 6.09865 12.6615 5.93191 12.6615 5.75793C12.6615 5.3858 12.5543 5.03783 12.3398 4.71403C12.3568 4.61254 12.3652 4.50863 12.3652 4.40231C12.3652 3.91418 12.196 3.48406 11.8574 3.11193C11.8631 2.44016 11.6233 1.90975 11.138 1.5207C10.6528 1.13165 10.0124 0.937133 9.2168 0.937133L8.91211 0.937133L8.125 0.937133C7.58333 0.937133 7.04872 0.991503 6.52116 1.10024C5.99359 1.20898 5.38281 1.36726 4.6888 1.57507C4.03428 1.76839 3.64496 1.86505 3.52083 1.86505L1.08333 1.86505C0.784286 1.86505 0.528971 1.95566 0.317382 2.1369C0.105792 2.31813 -1.06161e-06 2.53682 -1.03562e-06 2.79296L-5.64885e-07 7.43252C-5.38897e-07 7.68867 0.105793 7.90735 0.317382 8.08859C0.528972 8.26982 0.784286 8.36044 1.08333 8.36044L3.40234 8.36044C3.60547 8.47643 3.99197 8.85097 4.56185 9.48408C4.88911 9.84655 5.19097 10.1558 5.46745 10.412C5.60286 10.5328 5.70302 10.7394 5.7679 11.0318C5.83279 11.3242 5.91884 11.6299 6.02604 11.9488C6.13325 12.2678 6.30816 12.5288 6.55078 12.7318C6.77083 12.9106 7.02474 13 7.3125 13C7.78646 13 8.21245 12.9215 8.5905 12.7644C8.96853 12.6073 9.25629 12.3621 9.45378 12.0286C9.65126 11.6951 9.75 11.2457 9.75 10.6802C9.75 10.2308 9.61458 9.76681 9.34375 9.28835L10.8333 9.28835C11.4201 9.28835 11.9279 9.1047 12.3568 8.7374C12.7856 8.3701 13 7.93756 13 7.43977Z" fill="white"/>
</svg>
