<svg width="15" height="14" viewBox="0 0 15 14" fill="none" xmlns="http://www.w3.org/2000/svg">
<path d="M2.31445 11.5078C2.43815 11.4028 2.5 11.2786 2.5 11.135C2.5 10.9913 2.43815 10.8671 2.31445 10.7621C2.19075 10.6572 2.04427 10.6047 1.875 10.6047C1.70573 10.6047 1.55925 10.6572 1.43555 10.7621C1.31185 10.8671 1.25 10.9913 1.25 11.135C1.25 11.2786 1.31185 11.4028 1.43555 11.5078C1.55925 11.6127 1.70573 11.6652 1.875 11.6652C2.04427 11.6652 2.19075 11.6127 2.31445 11.5078ZM13.75 6.36283C13.75 6.08114 13.623 5.83398 13.3691 5.62133C13.1152 5.40868 12.8255 5.30236 12.5 5.30236H9.0625C9.0625 4.98201 9.21875 4.54153 9.53125 3.98091C9.84375 3.4203 10 2.97706 10 2.65118C10 2.10989 9.89583 1.70946 9.6875 1.44986C9.47917 1.19027 9.0625 1.06047 8.4375 1.06047C8.26823 1.20408 8.14453 1.43882 8.06641 1.76469C7.98828 2.09057 7.889 2.43715 7.76855 2.80445C7.64811 3.17175 7.45443 3.47415 7.1875 3.71165C7.04427 3.83869 6.79362 4.08999 6.43555 4.46558C6.40951 4.4932 6.33464 4.57605 6.21094 4.71413C6.08724 4.85221 5.9847 4.96544 5.90332 5.05381C5.82194 5.14218 5.70964 5.25955 5.56641 5.40592C5.42318 5.55229 5.29297 5.6738 5.17578 5.77046C5.05859 5.86712 4.93327 5.96515 4.7998 6.06457C4.66634 6.16399 4.53613 6.23856 4.40918 6.28827C4.28223 6.33798 4.16667 6.36283 4.0625 6.36283H3.75V11.6652H4.0625C4.14714 11.6652 4.24967 11.6735 4.37012 11.69C4.49056 11.7066 4.59798 11.7246 4.69238 11.7439C4.78678 11.7632 4.91048 11.7936 5.06348 11.835C5.21647 11.8765 5.3304 11.9082 5.40527 11.9303C5.48014 11.9524 5.5957 11.9869 5.75195 12.0339C5.9082 12.0808 6.0026 12.1098 6.03516 12.1209C7.40886 12.5241 8.52213 12.7257 9.375 12.7257H10.5566C11.8066 12.7257 12.4316 12.2645 12.4316 11.3421C12.4316 11.1985 12.4154 11.0438 12.3828 10.8781C12.5781 10.7897 12.7327 10.6448 12.8467 10.4432C12.9606 10.2416 13.0176 10.0386 13.0176 9.83422C13.0176 9.62986 12.959 9.4393 12.8418 9.26256C13.1869 8.98639 13.3594 8.65776 13.3594 8.27665C13.3594 8.13857 13.3268 7.9853 13.2617 7.81684C13.1966 7.64838 13.1152 7.5172 13.0176 7.4233C13.2259 7.41778 13.4001 7.28798 13.54 7.03391C13.68 6.77984 13.75 6.55615 13.75 6.36283ZM15 6.35455C15 6.84612 14.8405 7.29626 14.5215 7.70499C14.5801 7.88726 14.6094 8.07781 14.6094 8.27665C14.6094 8.70195 14.4857 9.09962 14.2383 9.46968C14.2578 9.58567 14.2676 9.70442 14.2676 9.82593C14.2676 10.3838 14.0723 10.8754 13.6816 11.3007C13.6882 12.0684 13.4115 12.6746 12.8516 13.1192C12.2917 13.5638 11.5527 13.7861 10.6348 13.7861H10.2832H9.375C8.75 13.7861 8.13314 13.724 7.52441 13.5997C6.91569 13.4754 6.21094 13.2946 5.41016 13.0571C4.65494 12.8361 4.20573 12.7257 4.0625 12.7257H1.25C0.904946 12.7257 0.610353 12.6221 0.366211 12.415C0.122069 12.2079 0 11.9579 0 11.6652V6.36283C0 6.07009 0.122069 5.82017 0.366211 5.61304C0.610353 5.40592 0.904946 5.30236 1.25 5.30236H3.92578C4.16016 5.1698 4.60612 4.74175 5.26367 4.01819C5.64128 3.60395 5.98958 3.25046 6.30859 2.95772C6.46484 2.81964 6.5804 2.58352 6.65527 2.24936C6.73014 1.9152 6.82943 1.56585 6.95312 1.20132C7.07682 0.836777 7.27864 0.538522 7.55859 0.306543C7.8125 0.10218 8.10547 0 8.4375 0C8.98438 0 9.47591 0.0897526 9.91211 0.26926C10.3483 0.448768 10.6803 0.729072 10.9082 1.11018C11.1361 1.49129 11.25 2.00495 11.25 2.65118C11.25 3.16485 11.0938 3.69508 10.7812 4.24189H12.5C13.1771 4.24189 13.763 4.45177 14.2578 4.87154C14.7526 5.29131 15 5.78564 15 6.35455Z" fill="#FC4255"/>
</svg>
