<svg width="20" height="27" viewBox="0 0 20 27" fill="none" xmlns="http://www.w3.org/2000/svg">
<path d="M12.9039 14.75L19.232 8.48047C19.5836 8.12891 19.5836 7.48438 19.232 7.13281L17.7672 5.66797C17.4156 5.31641 16.7711 5.31641 16.4195 5.66797L10.15 11.9961L3.82187 5.66797C3.47031 5.31641 2.82578 5.31641 2.47422 5.66797L1.00937 7.13281C0.657812 7.48438 0.657812 8.12891 1.00937 8.48047L7.3375 14.75L1.00937 21.0781C0.657812 21.4297 0.657812 22.0742 1.00937 22.4258L2.47422 23.8906C2.82578 24.2422 3.47031 24.2422 3.82187 23.8906L10.15 17.5625L16.4195 23.8906C16.7711 24.2422 17.4156 24.2422 17.7672 23.8906L19.232 22.4258C19.5836 22.0742 19.5836 21.4297 19.232 21.0781L12.9039 14.75Z" fill="black"/>
</svg>
