<svg width="20" height="20" viewBox="0 0 20 20" fill="none" xmlns="http://www.w3.org/2000/svg">
<path d="M13.1285 9.75L19.4566 3.48047C19.8082 3.12891 19.8082 2.48438 19.4566 2.13281L17.9918 0.667969C17.6402 0.316406 16.9957 0.316406 16.6441 0.667969L10.3746 6.99609L4.04648 0.667969C3.69492 0.316406 3.05039 0.316406 2.69883 0.667969L1.23398 2.13281C0.882421 2.48438 0.882421 3.12891 1.23398 3.48047L7.56211 9.75L1.23398 16.0781C0.882421 16.4297 0.882421 17.0742 1.23398 17.4258L2.69883 18.8906C3.05039 19.2422 3.69492 19.2422 4.04648 18.8906L10.3746 12.5625L16.6441 18.8906C16.9957 19.2422 17.6402 19.2422 17.9918 18.8906L19.4566 17.4258C19.8082 17.0742 19.8082 16.4297 19.4566 16.0781L13.1285 9.75Z" fill="#FC4255"/>
</svg>
