<svg width="18" height="18" viewBox="0 0 18 18" fill="none" xmlns="http://www.w3.org/2000/svg">
<g clip-path="url(#clip0)">
<path d="M17.7298 0.110491C17.9509 0.271206 18.0413 0.48549 18.0011 0.753348L15.4282 16.1819C15.3947 16.3761 15.2875 16.5268 15.1066 16.6339C15.0128 16.6875 14.909 16.7143 14.7951 16.7143C14.7214 16.7143 14.641 16.6975 14.5539 16.6641L10.0011 14.8058L7.56895 17.769C7.44835 17.923 7.2842 18 7.07649 18C6.98939 18 6.91569 17.9866 6.85539 17.9598C6.72808 17.9129 6.62591 17.8343 6.54885 17.7238C6.4718 17.6133 6.43328 17.4911 6.43328 17.3571V13.8516L15.1167 3.21429L4.37297 12.5056L0.403127 10.8783C0.155219 10.7846 0.0212175 10.6004 0.00111671 10.3259C-0.0122837 10.058 0.094918 9.86049 0.322725 9.73326L17.0463 0.0904019C17.1468 0.0301336 17.254 0 17.3679 0C17.502 0 17.6226 0.03683 17.7298 0.110491Z" fill="#FC4255"/>
</g>
<defs>
<clipPath id="clip0">
<rect width="18" height="18" fill="white"/>
</clipPath>
</defs>
</svg>
